<svg width="2167" height="188" viewBox="0 0 2167 188" fill="none" xmlns="http://www.w3.org/2000/svg">
<mask id="path-1-outside-1_4_6" maskUnits="userSpaceOnUse" x="0" y="0" width="2167" height="188" fill="black">
<rect fill="white" width="2167" height="188"/>
<path d="M23.44 122.98H84.64V137.2H4V124.24L64.84 25.96H4.72V11.74H84.28V24.7L23.44 122.98Z"/>
<path d="M196.963 84.1C196.963 87.22 196.783 90.52 196.423 94H117.583C118.183 103.72 121.483 111.34 127.483 116.86C133.603 122.26 140.983 124.96 149.623 124.96C156.703 124.96 162.583 123.34 167.263 120.1C172.063 116.74 175.423 112.3 177.343 106.78H194.983C192.343 116.26 187.063 124 179.143 130C171.223 135.88 161.383 138.82 149.623 138.82C140.263 138.82 131.863 136.72 124.423 132.52C117.103 128.32 111.343 122.38 107.143 114.7C102.943 106.9 100.843 97.9 100.843 87.7C100.843 77.5 102.883 68.56 106.963 60.88C111.043 53.2 116.743 47.32 124.063 43.24C131.503 39.04 140.023 36.94 149.623 36.94C158.983 36.94 167.263 38.98 174.463 43.06C181.663 47.14 187.183 52.78 191.023 59.98C194.983 67.06 196.963 75.1 196.963 84.1ZM180.043 80.68C180.043 74.44 178.663 69.1 175.903 64.66C173.143 60.1 169.363 56.68 164.563 54.4C159.883 52 154.663 50.8 148.903 50.8C140.623 50.8 133.543 53.44 127.663 58.72C121.903 64 118.603 71.32 117.763 80.68H180.043Z"/>
<path d="M234.964 56.74C238.204 51.1 243.004 46.42 249.364 42.7C255.844 38.86 263.344 36.94 271.864 36.94C280.624 36.94 288.544 39.04 295.624 43.24C302.824 47.44 308.464 53.38 312.544 61.06C316.624 68.62 318.664 77.44 318.664 87.52C318.664 97.48 316.624 106.36 312.544 114.16C308.464 121.96 302.824 128.02 295.624 132.34C288.544 136.66 280.624 138.82 271.864 138.82C263.464 138.82 256.024 136.96 249.544 133.24C243.184 129.4 238.324 124.66 234.964 119.02V184H218.584V38.56H234.964V56.74ZM301.924 87.52C301.924 80.08 300.424 73.6 297.424 68.08C294.424 62.56 290.344 58.36 285.184 55.48C280.144 52.6 274.564 51.16 268.444 51.16C262.444 51.16 256.864 52.66 251.704 55.66C246.664 58.54 242.584 62.8 239.464 68.44C236.464 73.96 234.964 80.38 234.964 87.7C234.964 95.14 236.464 101.68 239.464 107.32C242.584 112.84 246.664 117.1 251.704 120.1C256.864 122.98 262.444 124.42 268.444 124.42C274.564 124.42 280.144 122.98 285.184 120.1C290.344 117.1 294.424 112.84 297.424 107.32C300.424 101.68 301.924 95.08 301.924 87.52Z"/>
<path d="M389.185 36.76C396.625 36.76 403.345 38.38 409.345 41.62C415.345 44.74 420.025 49.48 423.385 55.84C426.865 62.2 428.605 69.94 428.605 79.06V137.2H412.405V81.4C412.405 71.56 409.945 64.06 405.025 58.9C400.105 53.62 393.385 50.98 384.865 50.98C376.225 50.98 369.325 53.68 364.165 59.08C359.125 64.48 356.605 72.34 356.605 82.66V137.2H340.225V4H356.605V52.6C359.845 47.56 364.285 43.66 369.925 40.9C375.685 38.14 382.105 36.76 389.185 36.76Z"/>
<path d="M540.321 38.56L480.921 183.64H464.001L483.441 136.12L443.661 38.56H461.841L492.801 118.48L523.401 38.56H540.321Z"/>
<path d="M573.167 54.58C576.047 48.94 580.127 44.56 585.407 41.44C590.807 38.32 597.347 36.76 605.027 36.76V53.68H600.707C582.347 53.68 573.167 63.64 573.167 83.56V137.2H556.787V38.56H573.167V54.58Z"/>
<path d="M737.984 137.2L708.104 85.9H688.304V137.2H671.924V11.74H712.424C721.904 11.74 729.884 13.36 736.364 16.6C742.964 19.84 747.884 24.22 751.124 29.74C754.364 35.26 755.984 41.56 755.984 48.64C755.984 57.28 753.464 64.9 748.424 71.5C743.504 78.1 736.064 82.48 726.104 84.64L757.604 137.2H737.984ZM688.304 72.76H712.424C721.304 72.76 727.964 70.6 732.404 66.28C736.844 61.84 739.064 55.96 739.064 48.64C739.064 41.2 736.844 35.44 732.404 31.36C728.084 27.28 721.424 25.24 712.424 25.24H688.304V72.76Z"/>
<path d="M871.435 84.1C871.435 87.22 871.255 90.52 870.895 94H792.055C792.655 103.72 795.955 111.34 801.955 116.86C808.075 122.26 815.455 124.96 824.095 124.96C831.175 124.96 837.055 123.34 841.735 120.1C846.535 116.74 849.895 112.3 851.815 106.78H869.455C866.815 116.26 861.535 124 853.615 130C845.695 135.88 835.855 138.82 824.095 138.82C814.735 138.82 806.335 136.72 798.895 132.52C791.575 128.32 785.815 122.38 781.615 114.7C777.415 106.9 775.315 97.9 775.315 87.7C775.315 77.5 777.355 68.56 781.435 60.88C785.515 53.2 791.215 47.32 798.535 43.24C805.975 39.04 814.495 36.94 824.095 36.94C833.455 36.94 841.735 38.98 848.935 43.06C856.135 47.14 861.655 52.78 865.495 59.98C869.455 67.06 871.435 75.1 871.435 84.1ZM854.515 80.68C854.515 74.44 853.135 69.1 850.375 64.66C847.615 60.1 843.835 56.68 839.035 54.4C834.355 52 829.135 50.8 823.375 50.8C815.095 50.8 808.015 53.44 802.135 58.72C796.375 64 793.075 71.32 792.235 80.68H854.515Z"/>
<path d="M886.937 87.52C886.937 77.44 888.977 68.62 893.057 61.06C897.137 53.38 902.717 47.44 909.797 43.24C916.997 39.04 924.977 36.94 933.737 36.94C942.377 36.94 949.877 38.8 956.237 42.52C962.597 46.24 967.337 50.92 970.457 56.56V38.56H987.017V137.2H970.457V118.84C967.217 124.6 962.357 129.4 955.877 133.24C949.517 136.96 942.077 138.82 933.557 138.82C924.797 138.82 916.877 136.66 909.797 132.34C902.717 128.02 897.137 121.96 893.057 114.16C888.977 106.36 886.937 97.48 886.937 87.52ZM970.457 87.7C970.457 80.26 968.957 73.78 965.957 68.26C962.957 62.74 958.877 58.54 953.717 55.66C948.677 52.66 943.097 51.16 936.977 51.16C930.857 51.16 925.277 52.6 920.237 55.48C915.197 58.36 911.177 62.56 908.177 68.08C905.177 73.6 903.677 80.08 903.677 87.52C903.677 95.08 905.177 101.68 908.177 107.32C911.177 112.84 915.197 117.1 920.237 120.1C925.277 122.98 930.857 124.42 936.977 124.42C943.097 124.42 948.677 122.98 953.717 120.1C958.877 117.1 962.957 112.84 965.957 107.32C968.957 101.68 970.457 95.14 970.457 87.7Z"/>
<path d="M1133.32 36.76C1141 36.76 1147.84 38.38 1153.84 41.62C1159.84 44.74 1164.58 49.48 1168.06 55.84C1171.54 62.2 1173.28 69.94 1173.28 79.06V137.2H1157.08V81.4C1157.08 71.56 1154.62 64.06 1149.7 58.9C1144.9 53.62 1138.36 50.98 1130.08 50.98C1121.56 50.98 1114.78 53.74 1109.74 59.26C1104.7 64.66 1102.18 72.52 1102.18 82.84V137.2H1085.98V81.4C1085.98 71.56 1083.52 64.06 1078.6 58.9C1073.8 53.62 1067.26 50.98 1058.98 50.98C1050.46 50.98 1043.68 53.74 1038.64 59.26C1033.6 64.66 1031.08 72.52 1031.08 82.84V137.2H1014.7V38.56H1031.08V52.78C1034.32 47.62 1038.64 43.66 1044.04 40.9C1049.56 38.14 1055.62 36.76 1062.22 36.76C1070.5 36.76 1077.82 38.62 1084.18 42.34C1090.54 46.06 1095.28 51.52 1098.4 58.72C1101.16 51.76 1105.72 46.36 1112.08 42.52C1118.44 38.68 1125.52 36.76 1133.32 36.76Z"/>
<path d="M1290.15 84.1C1290.15 87.22 1289.97 90.52 1289.61 94H1210.77C1211.37 103.72 1214.67 111.34 1220.67 116.86C1226.79 122.26 1234.17 124.96 1242.81 124.96C1249.89 124.96 1255.77 123.34 1260.45 120.1C1265.25 116.74 1268.61 112.3 1270.53 106.78H1288.17C1285.53 116.26 1280.25 124 1272.33 130C1264.41 135.88 1254.57 138.82 1242.81 138.82C1233.45 138.82 1225.05 136.72 1217.61 132.52C1210.29 128.32 1204.53 122.38 1200.33 114.7C1196.13 106.9 1194.03 97.9 1194.03 87.7C1194.03 77.5 1196.07 68.56 1200.15 60.88C1204.23 53.2 1209.93 47.32 1217.25 43.24C1224.69 39.04 1233.21 36.94 1242.81 36.94C1252.17 36.94 1260.45 38.98 1267.65 43.06C1274.85 47.14 1280.37 52.78 1284.21 59.98C1288.17 67.06 1290.15 75.1 1290.15 84.1ZM1273.23 80.68C1273.23 74.44 1271.85 69.1 1269.09 64.66C1266.33 60.1 1262.55 56.68 1257.75 54.4C1253.07 52 1247.85 50.8 1242.09 50.8C1233.81 50.8 1226.73 53.44 1220.85 58.72C1215.09 64 1211.79 71.32 1210.95 80.68H1273.23Z"/>
<path d="M1346.69 138.82C1339.13 138.82 1332.35 137.56 1326.35 135.04C1320.35 132.4 1315.61 128.8 1312.13 124.24C1308.65 119.56 1306.73 114.22 1306.37 108.22H1323.29C1323.77 113.14 1326.05 117.16 1330.13 120.28C1334.33 123.4 1339.79 124.96 1346.51 124.96C1352.75 124.96 1357.67 123.58 1361.27 120.82C1364.87 118.06 1366.67 114.58 1366.67 110.38C1366.67 106.06 1364.75 102.88 1360.91 100.84C1357.07 98.68 1351.13 96.58 1343.09 94.54C1335.77 92.62 1329.77 90.7 1325.09 88.78C1320.53 86.74 1316.57 83.8 1313.21 79.96C1309.97 76 1308.35 70.84 1308.35 64.48C1308.35 59.44 1309.85 54.82 1312.85 50.62C1315.85 46.42 1320.11 43.12 1325.63 40.72C1331.15 38.2 1337.45 36.94 1344.53 36.94C1355.45 36.94 1364.27 39.7 1370.99 45.22C1377.71 50.74 1381.31 58.3 1381.79 67.9H1365.41C1365.05 62.74 1362.95 58.6 1359.11 55.48C1355.39 52.36 1350.35 50.8 1343.99 50.8C1338.11 50.8 1333.43 52.06 1329.95 54.58C1326.47 57.1 1324.73 60.4 1324.73 64.48C1324.73 67.72 1325.75 70.42 1327.79 72.58C1329.95 74.62 1332.59 76.3 1335.71 77.62C1338.95 78.82 1343.39 80.2 1349.03 81.76C1356.11 83.68 1361.87 85.6 1366.31 87.52C1370.75 89.32 1374.53 92.08 1377.65 95.8C1380.89 99.52 1382.57 104.38 1382.69 110.38C1382.69 115.78 1381.19 120.64 1378.19 124.96C1375.19 129.28 1370.93 132.7 1365.41 135.22C1360.01 137.62 1353.77 138.82 1346.69 138.82Z"/>
<path d="M1474.21 64.3V78.16H1402.39V64.3H1474.21Z"/>
<path d="M1518.81 122.98H1580.01V137.2H1499.37V124.24L1560.21 25.96H1500.09V11.74H1579.65V24.7L1518.81 122.98Z"/>
<path d="M1692.33 84.1C1692.33 87.22 1692.15 90.52 1691.79 94H1612.95C1613.55 103.72 1616.85 111.34 1622.85 116.86C1628.97 122.26 1636.35 124.96 1644.99 124.96C1652.07 124.96 1657.95 123.34 1662.63 120.1C1667.43 116.74 1670.79 112.3 1672.71 106.78H1690.35C1687.71 116.26 1682.43 124 1674.51 130C1666.59 135.88 1656.75 138.82 1644.99 138.82C1635.63 138.82 1627.23 136.72 1619.79 132.52C1612.47 128.32 1606.71 122.38 1602.51 114.7C1598.31 106.9 1596.21 97.9 1596.21 87.7C1596.21 77.5 1598.25 68.56 1602.33 60.88C1606.41 53.2 1612.11 47.32 1619.43 43.24C1626.87 39.04 1635.39 36.94 1644.99 36.94C1654.35 36.94 1662.63 38.98 1669.83 43.06C1677.03 47.14 1682.55 52.78 1686.39 59.98C1690.35 67.06 1692.33 75.1 1692.33 84.1ZM1675.41 80.68C1675.41 74.44 1674.03 69.1 1671.27 64.66C1668.51 60.1 1664.73 56.68 1659.93 54.4C1655.25 52 1650.03 50.8 1644.27 50.8C1635.99 50.8 1628.91 53.44 1623.03 58.72C1617.27 64 1613.97 71.32 1613.13 80.68H1675.41Z"/>
<path d="M1730.33 56.74C1733.57 51.1 1738.37 46.42 1744.73 42.7C1751.21 38.86 1758.71 36.94 1767.23 36.94C1775.99 36.94 1783.91 39.04 1790.99 43.24C1798.19 47.44 1803.83 53.38 1807.91 61.06C1811.99 68.62 1814.04 77.44 1814.04 87.52C1814.04 97.48 1811.99 106.36 1807.91 114.16C1803.83 121.96 1798.19 128.02 1790.99 132.34C1783.91 136.66 1775.99 138.82 1767.23 138.82C1758.83 138.82 1751.39 136.96 1744.91 133.24C1738.55 129.4 1733.69 124.66 1730.33 119.02V184H1713.95V38.56H1730.33V56.74ZM1797.29 87.52C1797.29 80.08 1795.79 73.6 1792.79 68.08C1789.79 62.56 1785.71 58.36 1780.55 55.48C1775.51 52.6 1769.93 51.16 1763.81 51.16C1757.81 51.16 1752.23 52.66 1747.07 55.66C1742.03 58.54 1737.95 62.8 1734.83 68.44C1731.83 73.96 1730.33 80.38 1730.33 87.7C1730.33 95.14 1731.83 101.68 1734.83 107.32C1737.95 112.84 1742.03 117.1 1747.07 120.1C1752.23 122.98 1757.81 124.42 1763.81 124.42C1769.93 124.42 1775.51 122.98 1780.55 120.1C1785.71 117.1 1789.79 112.84 1792.79 107.32C1795.79 101.68 1797.29 95.08 1797.29 87.52Z"/>
<path d="M1925.6 84.1C1925.6 87.22 1925.42 90.52 1925.06 94H1846.22C1846.82 103.72 1850.12 111.34 1856.12 116.86C1862.24 122.26 1869.62 124.96 1878.26 124.96C1885.34 124.96 1891.22 123.34 1895.9 120.1C1900.7 116.74 1904.06 112.3 1905.98 106.78H1923.62C1920.98 116.26 1915.7 124 1907.78 130C1899.86 135.88 1890.02 138.82 1878.26 138.82C1868.9 138.82 1860.5 136.72 1853.06 132.52C1845.74 128.32 1839.98 122.38 1835.78 114.7C1831.58 106.9 1829.48 97.9 1829.48 87.7C1829.48 77.5 1831.52 68.56 1835.6 60.88C1839.68 53.2 1845.38 47.32 1852.7 43.24C1860.14 39.04 1868.66 36.94 1878.26 36.94C1887.62 36.94 1895.9 38.98 1903.1 43.06C1910.3 47.14 1915.82 52.78 1919.66 59.98C1923.62 67.06 1925.6 75.1 1925.6 84.1ZM1908.68 80.68C1908.68 74.44 1907.3 69.1 1904.54 64.66C1901.78 60.1 1898 56.68 1893.2 54.4C1888.52 52 1883.3 50.8 1877.54 50.8C1869.26 50.8 1862.18 53.44 1856.3 58.72C1850.54 64 1847.24 71.32 1846.4 80.68H1908.68Z"/>
<path d="M1941.1 87.52C1941.1 77.44 1943.14 68.62 1947.22 61.06C1951.3 53.38 1956.88 47.44 1963.96 43.24C1971.16 39.04 1979.2 36.94 1988.08 36.94C1995.76 36.94 2002.9 38.74 2009.5 42.34C2016.1 45.82 2021.14 50.44 2024.62 56.2V4H2041.18V137.2H2024.62V118.66C2021.38 124.54 2016.58 129.4 2010.22 133.24C2003.86 136.96 1996.42 138.82 1987.9 138.82C1979.14 138.82 1971.16 136.66 1963.96 132.34C1956.88 128.02 1951.3 121.96 1947.22 114.16C1943.14 106.36 1941.1 97.48 1941.1 87.52ZM2024.62 87.7C2024.62 80.26 2023.12 73.78 2020.12 68.26C2017.12 62.74 2013.04 58.54 2007.88 55.66C2002.84 52.66 1997.26 51.16 1991.14 51.16C1985.02 51.16 1979.44 52.6 1974.4 55.48C1969.36 58.36 1965.34 62.56 1962.34 68.08C1959.34 73.6 1957.84 80.08 1957.84 87.52C1957.84 95.08 1959.34 101.68 1962.34 107.32C1965.34 112.84 1969.36 117.1 1974.4 120.1C1979.44 122.98 1985.02 124.42 1991.14 124.42C1997.26 124.42 2002.84 122.98 2007.88 120.1C2013.04 117.1 2017.12 112.84 2020.12 107.32C2023.12 101.68 2024.62 95.14 2024.62 87.7Z"/>
<path d="M2062.74 87.52C2062.74 77.44 2064.78 68.62 2068.86 61.06C2072.94 53.38 2078.52 47.44 2085.6 43.24C2092.8 39.04 2100.78 36.94 2109.54 36.94C2118.18 36.94 2125.68 38.8 2132.04 42.52C2138.4 46.24 2143.14 50.92 2146.26 56.56V38.56H2162.82V137.2H2146.26V118.84C2143.02 124.6 2138.16 129.4 2131.68 133.24C2125.32 136.96 2117.88 138.82 2109.36 138.82C2100.6 138.82 2092.68 136.66 2085.6 132.34C2078.52 128.02 2072.94 121.96 2068.86 114.16C2064.78 106.36 2062.74 97.48 2062.74 87.52ZM2146.26 87.7C2146.26 80.26 2144.76 73.78 2141.76 68.26C2138.76 62.74 2134.68 58.54 2129.52 55.66C2124.48 52.66 2118.9 51.16 2112.78 51.16C2106.66 51.16 2101.08 52.6 2096.04 55.48C2091 58.36 2086.98 62.56 2083.98 68.08C2080.98 73.6 2079.48 80.08 2079.48 87.52C2079.48 95.08 2080.98 101.68 2083.98 107.32C2086.98 112.84 2091 117.1 2096.04 120.1C2101.08 122.98 2106.66 124.42 2112.78 124.42C2118.9 124.42 2124.48 122.98 2129.52 120.1C2134.68 117.1 2138.76 112.84 2141.76 107.32C2144.76 101.68 2146.26 95.14 2146.26 87.7Z"/>
</mask>
<path d="M23.44 122.98H84.64V137.2H4V124.24L64.84 25.96H4.72V11.74H84.28V24.7L23.44 122.98Z" stroke="url(#paint0_linear_4_6)" stroke-width="8" mask="url(#path-1-outside-1_4_6)"/>
<path d="M196.963 84.1C196.963 87.22 196.783 90.52 196.423 94H117.583C118.183 103.72 121.483 111.34 127.483 116.86C133.603 122.26 140.983 124.96 149.623 124.96C156.703 124.96 162.583 123.34 167.263 120.1C172.063 116.74 175.423 112.3 177.343 106.78H194.983C192.343 116.26 187.063 124 179.143 130C171.223 135.88 161.383 138.82 149.623 138.82C140.263 138.82 131.863 136.72 124.423 132.52C117.103 128.32 111.343 122.38 107.143 114.7C102.943 106.9 100.843 97.9 100.843 87.7C100.843 77.5 102.883 68.56 106.963 60.88C111.043 53.2 116.743 47.32 124.063 43.24C131.503 39.04 140.023 36.94 149.623 36.94C158.983 36.94 167.263 38.98 174.463 43.06C181.663 47.14 187.183 52.78 191.023 59.98C194.983 67.06 196.963 75.1 196.963 84.1ZM180.043 80.68C180.043 74.44 178.663 69.1 175.903 64.66C173.143 60.1 169.363 56.68 164.563 54.4C159.883 52 154.663 50.8 148.903 50.8C140.623 50.8 133.543 53.44 127.663 58.72C121.903 64 118.603 71.32 117.763 80.68H180.043Z" stroke="url(#paint1_linear_4_6)" stroke-width="8" mask="url(#path-1-outside-1_4_6)"/>
<path d="M234.964 56.74C238.204 51.1 243.004 46.42 249.364 42.7C255.844 38.86 263.344 36.94 271.864 36.94C280.624 36.94 288.544 39.04 295.624 43.24C302.824 47.44 308.464 53.38 312.544 61.06C316.624 68.62 318.664 77.44 318.664 87.52C318.664 97.48 316.624 106.36 312.544 114.16C308.464 121.96 302.824 128.02 295.624 132.34C288.544 136.66 280.624 138.82 271.864 138.82C263.464 138.82 256.024 136.96 249.544 133.24C243.184 129.4 238.324 124.66 234.964 119.02V184H218.584V38.56H234.964V56.74ZM301.924 87.52C301.924 80.08 300.424 73.6 297.424 68.08C294.424 62.56 290.344 58.36 285.184 55.48C280.144 52.6 274.564 51.16 268.444 51.16C262.444 51.16 256.864 52.66 251.704 55.66C246.664 58.54 242.584 62.8 239.464 68.44C236.464 73.96 234.964 80.38 234.964 87.7C234.964 95.14 236.464 101.68 239.464 107.32C242.584 112.84 246.664 117.1 251.704 120.1C256.864 122.98 262.444 124.42 268.444 124.42C274.564 124.42 280.144 122.98 285.184 120.1C290.344 117.1 294.424 112.84 297.424 107.32C300.424 101.68 301.924 95.08 301.924 87.52Z" stroke="url(#paint2_linear_4_6)" stroke-width="8" mask="url(#path-1-outside-1_4_6)"/>
<path d="M389.185 36.76C396.625 36.76 403.345 38.38 409.345 41.62C415.345 44.74 420.025 49.48 423.385 55.84C426.865 62.2 428.605 69.94 428.605 79.06V137.2H412.405V81.4C412.405 71.56 409.945 64.06 405.025 58.9C400.105 53.62 393.385 50.98 384.865 50.98C376.225 50.98 369.325 53.68 364.165 59.08C359.125 64.48 356.605 72.34 356.605 82.66V137.2H340.225V4H356.605V52.6C359.845 47.56 364.285 43.66 369.925 40.9C375.685 38.14 382.105 36.76 389.185 36.76Z" stroke="url(#paint3_linear_4_6)" stroke-width="8" mask="url(#path-1-outside-1_4_6)"/>
<path d="M540.321 38.56L480.921 183.64H464.001L483.441 136.12L443.661 38.56H461.841L492.801 118.48L523.401 38.56H540.321Z" stroke="url(#paint4_linear_4_6)" stroke-width="8" mask="url(#path-1-outside-1_4_6)"/>
<path d="M573.167 54.58C576.047 48.94 580.127 44.56 585.407 41.44C590.807 38.32 597.347 36.76 605.027 36.76V53.68H600.707C582.347 53.68 573.167 63.64 573.167 83.56V137.2H556.787V38.56H573.167V54.58Z" stroke="url(#paint5_linear_4_6)" stroke-width="8" mask="url(#path-1-outside-1_4_6)"/>
<path d="M737.984 137.2L708.104 85.9H688.304V137.2H671.924V11.74H712.424C721.904 11.74 729.884 13.36 736.364 16.6C742.964 19.84 747.884 24.22 751.124 29.74C754.364 35.26 755.984 41.56 755.984 48.64C755.984 57.28 753.464 64.9 748.424 71.5C743.504 78.1 736.064 82.48 726.104 84.64L757.604 137.2H737.984ZM688.304 72.76H712.424C721.304 72.76 727.964 70.6 732.404 66.28C736.844 61.84 739.064 55.96 739.064 48.64C739.064 41.2 736.844 35.44 732.404 31.36C728.084 27.28 721.424 25.24 712.424 25.24H688.304V72.76Z" stroke="url(#paint6_linear_4_6)" stroke-width="8" mask="url(#path-1-outside-1_4_6)"/>
<path d="M871.435 84.1C871.435 87.22 871.255 90.52 870.895 94H792.055C792.655 103.72 795.955 111.34 801.955 116.86C808.075 122.26 815.455 124.96 824.095 124.96C831.175 124.96 837.055 123.34 841.735 120.1C846.535 116.74 849.895 112.3 851.815 106.78H869.455C866.815 116.26 861.535 124 853.615 130C845.695 135.88 835.855 138.82 824.095 138.82C814.735 138.82 806.335 136.72 798.895 132.52C791.575 128.32 785.815 122.38 781.615 114.7C777.415 106.9 775.315 97.9 775.315 87.7C775.315 77.5 777.355 68.56 781.435 60.88C785.515 53.2 791.215 47.32 798.535 43.24C805.975 39.04 814.495 36.94 824.095 36.94C833.455 36.94 841.735 38.98 848.935 43.06C856.135 47.14 861.655 52.78 865.495 59.98C869.455 67.06 871.435 75.1 871.435 84.1ZM854.515 80.68C854.515 74.44 853.135 69.1 850.375 64.66C847.615 60.1 843.835 56.68 839.035 54.4C834.355 52 829.135 50.8 823.375 50.8C815.095 50.8 808.015 53.44 802.135 58.72C796.375 64 793.075 71.32 792.235 80.68H854.515Z" stroke="url(#paint7_linear_4_6)" stroke-width="8" mask="url(#path-1-outside-1_4_6)"/>
<path d="M886.937 87.52C886.937 77.44 888.977 68.62 893.057 61.06C897.137 53.38 902.717 47.44 909.797 43.24C916.997 39.04 924.977 36.94 933.737 36.94C942.377 36.94 949.877 38.8 956.237 42.52C962.597 46.24 967.337 50.92 970.457 56.56V38.56H987.017V137.2H970.457V118.84C967.217 124.6 962.357 129.4 955.877 133.24C949.517 136.96 942.077 138.82 933.557 138.82C924.797 138.82 916.877 136.66 909.797 132.34C902.717 128.02 897.137 121.96 893.057 114.16C888.977 106.36 886.937 97.48 886.937 87.52ZM970.457 87.7C970.457 80.26 968.957 73.78 965.957 68.26C962.957 62.74 958.877 58.54 953.717 55.66C948.677 52.66 943.097 51.16 936.977 51.16C930.857 51.16 925.277 52.6 920.237 55.48C915.197 58.36 911.177 62.56 908.177 68.08C905.177 73.6 903.677 80.08 903.677 87.52C903.677 95.08 905.177 101.68 908.177 107.32C911.177 112.84 915.197 117.1 920.237 120.1C925.277 122.98 930.857 124.42 936.977 124.42C943.097 124.42 948.677 122.98 953.717 120.1C958.877 117.1 962.957 112.84 965.957 107.32C968.957 101.68 970.457 95.14 970.457 87.7Z" stroke="url(#paint8_linear_4_6)" stroke-width="8" mask="url(#path-1-outside-1_4_6)"/>
<path d="M1133.32 36.76C1141 36.76 1147.84 38.38 1153.84 41.62C1159.84 44.74 1164.58 49.48 1168.06 55.84C1171.54 62.2 1173.28 69.94 1173.28 79.06V137.2H1157.08V81.4C1157.08 71.56 1154.62 64.06 1149.7 58.9C1144.9 53.62 1138.36 50.98 1130.08 50.98C1121.56 50.98 1114.78 53.74 1109.74 59.26C1104.7 64.66 1102.18 72.52 1102.18 82.84V137.2H1085.98V81.4C1085.98 71.56 1083.52 64.06 1078.6 58.9C1073.8 53.62 1067.26 50.98 1058.98 50.98C1050.46 50.98 1043.68 53.74 1038.64 59.26C1033.6 64.66 1031.08 72.52 1031.08 82.84V137.2H1014.7V38.56H1031.08V52.78C1034.32 47.62 1038.64 43.66 1044.04 40.9C1049.56 38.14 1055.62 36.76 1062.22 36.76C1070.5 36.76 1077.82 38.62 1084.18 42.34C1090.54 46.06 1095.28 51.52 1098.4 58.72C1101.16 51.76 1105.72 46.36 1112.08 42.52C1118.44 38.68 1125.52 36.76 1133.32 36.76Z" stroke="url(#paint9_linear_4_6)" stroke-width="8" mask="url(#path-1-outside-1_4_6)"/>
<path d="M1290.15 84.1C1290.15 87.22 1289.97 90.52 1289.61 94H1210.77C1211.37 103.72 1214.67 111.34 1220.67 116.86C1226.79 122.26 1234.17 124.96 1242.81 124.96C1249.89 124.96 1255.77 123.34 1260.45 120.1C1265.25 116.74 1268.61 112.3 1270.53 106.78H1288.17C1285.53 116.26 1280.25 124 1272.33 130C1264.41 135.88 1254.57 138.82 1242.81 138.82C1233.45 138.82 1225.05 136.72 1217.61 132.52C1210.29 128.32 1204.53 122.38 1200.33 114.7C1196.13 106.9 1194.03 97.9 1194.03 87.7C1194.03 77.5 1196.07 68.56 1200.15 60.88C1204.23 53.2 1209.93 47.32 1217.25 43.24C1224.69 39.04 1233.21 36.94 1242.81 36.94C1252.17 36.94 1260.45 38.98 1267.65 43.06C1274.85 47.14 1280.37 52.78 1284.21 59.98C1288.17 67.06 1290.15 75.1 1290.15 84.1ZM1273.23 80.68C1273.23 74.44 1271.85 69.1 1269.09 64.66C1266.33 60.1 1262.55 56.68 1257.75 54.4C1253.07 52 1247.85 50.8 1242.09 50.8C1233.81 50.8 1226.73 53.44 1220.85 58.72C1215.09 64 1211.79 71.32 1210.95 80.68H1273.23Z" stroke="url(#paint10_linear_4_6)" stroke-width="8" mask="url(#path-1-outside-1_4_6)"/>
<path d="M1346.69 138.82C1339.13 138.82 1332.35 137.56 1326.35 135.04C1320.35 132.4 1315.61 128.8 1312.13 124.24C1308.65 119.56 1306.73 114.22 1306.37 108.22H1323.29C1323.77 113.14 1326.05 117.16 1330.13 120.28C1334.33 123.4 1339.79 124.96 1346.51 124.96C1352.75 124.96 1357.67 123.58 1361.27 120.82C1364.87 118.06 1366.67 114.58 1366.67 110.38C1366.67 106.06 1364.75 102.88 1360.91 100.84C1357.07 98.68 1351.13 96.58 1343.09 94.54C1335.77 92.62 1329.77 90.7 1325.09 88.78C1320.53 86.74 1316.57 83.8 1313.21 79.96C1309.97 76 1308.35 70.84 1308.35 64.48C1308.35 59.44 1309.85 54.82 1312.85 50.62C1315.85 46.42 1320.11 43.12 1325.63 40.72C1331.15 38.2 1337.45 36.94 1344.53 36.94C1355.45 36.94 1364.27 39.7 1370.99 45.22C1377.71 50.74 1381.31 58.3 1381.79 67.9H1365.41C1365.05 62.74 1362.95 58.6 1359.11 55.48C1355.39 52.36 1350.35 50.8 1343.99 50.8C1338.11 50.8 1333.43 52.06 1329.95 54.58C1326.47 57.1 1324.73 60.4 1324.73 64.48C1324.73 67.72 1325.75 70.42 1327.79 72.58C1329.95 74.62 1332.59 76.3 1335.71 77.62C1338.95 78.82 1343.39 80.2 1349.03 81.76C1356.11 83.68 1361.87 85.6 1366.31 87.52C1370.75 89.32 1374.53 92.08 1377.65 95.8C1380.89 99.52 1382.57 104.38 1382.69 110.38C1382.69 115.78 1381.19 120.64 1378.19 124.96C1375.19 129.28 1370.93 132.7 1365.41 135.22C1360.01 137.62 1353.77 138.82 1346.69 138.82Z" stroke="url(#paint11_linear_4_6)" stroke-width="8" mask="url(#path-1-outside-1_4_6)"/>
<path d="M1474.21 64.3V78.16H1402.39V64.3H1474.21Z" stroke="url(#paint12_linear_4_6)" stroke-width="8" mask="url(#path-1-outside-1_4_6)"/>
<path d="M1518.81 122.98H1580.01V137.2H1499.37V124.24L1560.21 25.96H1500.09V11.74H1579.65V24.7L1518.81 122.98Z" stroke="url(#paint13_linear_4_6)" stroke-width="8" mask="url(#path-1-outside-1_4_6)"/>
<path d="M1692.33 84.1C1692.33 87.22 1692.15 90.52 1691.79 94H1612.95C1613.55 103.72 1616.85 111.34 1622.85 116.86C1628.97 122.26 1636.35 124.96 1644.99 124.96C1652.07 124.96 1657.95 123.34 1662.63 120.1C1667.43 116.74 1670.79 112.3 1672.71 106.78H1690.35C1687.71 116.26 1682.43 124 1674.51 130C1666.59 135.88 1656.75 138.82 1644.99 138.82C1635.63 138.82 1627.23 136.72 1619.79 132.52C1612.47 128.32 1606.71 122.38 1602.51 114.7C1598.31 106.9 1596.21 97.9 1596.21 87.7C1596.21 77.5 1598.25 68.56 1602.33 60.88C1606.41 53.2 1612.11 47.32 1619.43 43.24C1626.87 39.04 1635.39 36.94 1644.99 36.94C1654.35 36.94 1662.63 38.98 1669.83 43.06C1677.03 47.14 1682.55 52.78 1686.39 59.98C1690.35 67.06 1692.33 75.1 1692.33 84.1ZM1675.41 80.68C1675.41 74.44 1674.03 69.1 1671.27 64.66C1668.51 60.1 1664.73 56.68 1659.93 54.4C1655.25 52 1650.03 50.8 1644.27 50.8C1635.99 50.8 1628.91 53.44 1623.03 58.72C1617.27 64 1613.97 71.32 1613.13 80.68H1675.41Z" stroke="url(#paint14_linear_4_6)" stroke-width="8" mask="url(#path-1-outside-1_4_6)"/>
<path d="M1730.33 56.74C1733.57 51.1 1738.37 46.42 1744.73 42.7C1751.21 38.86 1758.71 36.94 1767.23 36.94C1775.99 36.94 1783.91 39.04 1790.99 43.24C1798.19 47.44 1803.83 53.38 1807.91 61.06C1811.99 68.62 1814.04 77.44 1814.04 87.52C1814.04 97.48 1811.99 106.36 1807.91 114.16C1803.83 121.96 1798.19 128.02 1790.99 132.34C1783.91 136.66 1775.99 138.82 1767.23 138.82C1758.83 138.82 1751.39 136.96 1744.91 133.24C1738.55 129.4 1733.69 124.66 1730.33 119.02V184H1713.95V38.56H1730.33V56.74ZM1797.29 87.52C1797.29 80.08 1795.79 73.6 1792.79 68.08C1789.79 62.56 1785.71 58.36 1780.55 55.48C1775.51 52.6 1769.93 51.16 1763.81 51.16C1757.81 51.16 1752.23 52.66 1747.07 55.66C1742.03 58.54 1737.95 62.8 1734.83 68.44C1731.83 73.96 1730.33 80.38 1730.33 87.7C1730.33 95.14 1731.83 101.68 1734.83 107.32C1737.95 112.84 1742.03 117.1 1747.07 120.1C1752.23 122.98 1757.81 124.42 1763.81 124.42C1769.93 124.42 1775.51 122.98 1780.55 120.1C1785.71 117.1 1789.79 112.84 1792.79 107.32C1795.79 101.68 1797.29 95.08 1797.29 87.52Z" stroke="url(#paint15_linear_4_6)" stroke-width="8" mask="url(#path-1-outside-1_4_6)"/>
<path d="M1925.6 84.1C1925.6 87.22 1925.42 90.52 1925.06 94H1846.22C1846.82 103.72 1850.12 111.34 1856.12 116.86C1862.24 122.26 1869.62 124.96 1878.26 124.96C1885.34 124.96 1891.22 123.34 1895.9 120.1C1900.7 116.74 1904.06 112.3 1905.98 106.78H1923.62C1920.98 116.26 1915.7 124 1907.78 130C1899.86 135.88 1890.02 138.82 1878.26 138.82C1868.9 138.82 1860.5 136.72 1853.06 132.52C1845.74 128.32 1839.98 122.38 1835.78 114.7C1831.58 106.9 1829.48 97.9 1829.48 87.7C1829.48 77.5 1831.52 68.56 1835.6 60.88C1839.68 53.2 1845.38 47.32 1852.7 43.24C1860.14 39.04 1868.66 36.94 1878.26 36.94C1887.62 36.94 1895.9 38.98 1903.1 43.06C1910.3 47.14 1915.82 52.78 1919.66 59.98C1923.62 67.06 1925.6 75.1 1925.6 84.1ZM1908.68 80.68C1908.68 74.44 1907.3 69.1 1904.54 64.66C1901.78 60.1 1898 56.68 1893.2 54.4C1888.52 52 1883.3 50.8 1877.54 50.8C1869.26 50.8 1862.18 53.44 1856.3 58.72C1850.54 64 1847.24 71.32 1846.4 80.68H1908.68Z" stroke="url(#paint16_linear_4_6)" stroke-width="8" mask="url(#path-1-outside-1_4_6)"/>
<path d="M1941.1 87.52C1941.1 77.44 1943.14 68.62 1947.22 61.06C1951.3 53.38 1956.88 47.44 1963.96 43.24C1971.16 39.04 1979.2 36.94 1988.08 36.94C1995.76 36.94 2002.9 38.74 2009.5 42.34C2016.1 45.82 2021.14 50.44 2024.62 56.2V4H2041.18V137.2H2024.62V118.66C2021.38 124.54 2016.58 129.4 2010.22 133.24C2003.86 136.96 1996.42 138.82 1987.9 138.82C1979.14 138.82 1971.16 136.66 1963.96 132.34C1956.88 128.02 1951.3 121.96 1947.22 114.16C1943.14 106.36 1941.1 97.48 1941.1 87.52ZM2024.62 87.7C2024.62 80.26 2023.12 73.78 2020.12 68.26C2017.12 62.74 2013.04 58.54 2007.88 55.66C2002.84 52.66 1997.26 51.16 1991.14 51.16C1985.02 51.16 1979.44 52.6 1974.4 55.48C1969.36 58.36 1965.34 62.56 1962.34 68.08C1959.34 73.6 1957.84 80.08 1957.84 87.52C1957.84 95.08 1959.34 101.68 1962.34 107.32C1965.34 112.84 1969.36 117.1 1974.4 120.1C1979.44 122.98 1985.02 124.42 1991.14 124.42C1997.26 124.42 2002.84 122.98 2007.88 120.1C2013.04 117.1 2017.12 112.84 2020.12 107.32C2023.12 101.68 2024.62 95.14 2024.62 87.7Z" stroke="url(#paint17_linear_4_6)" stroke-width="8" mask="url(#path-1-outside-1_4_6)"/>
<path d="M2062.74 87.52C2062.74 77.44 2064.78 68.62 2068.86 61.06C2072.94 53.38 2078.52 47.44 2085.6 43.24C2092.8 39.04 2100.78 36.94 2109.54 36.94C2118.18 36.94 2125.68 38.8 2132.04 42.52C2138.4 46.24 2143.14 50.92 2146.26 56.56V38.56H2162.82V137.2H2146.26V118.84C2143.02 124.6 2138.16 129.4 2131.68 133.24C2125.32 136.96 2117.88 138.82 2109.36 138.82C2100.6 138.82 2092.68 136.66 2085.6 132.34C2078.52 128.02 2072.94 121.96 2068.86 114.16C2064.78 106.36 2062.74 97.48 2062.74 87.52ZM2146.26 87.7C2146.26 80.26 2144.76 73.78 2141.76 68.26C2138.76 62.74 2134.68 58.54 2129.52 55.66C2124.48 52.66 2118.9 51.16 2112.78 51.16C2106.66 51.16 2101.08 52.6 2096.04 55.48C2091 58.36 2086.98 62.56 2083.98 68.08C2080.98 73.6 2079.48 80.08 2079.48 87.52C2079.48 95.08 2080.98 101.68 2083.98 107.32C2086.98 112.84 2091 117.1 2096.04 120.1C2101.08 122.98 2106.66 124.42 2112.78 124.42C2118.9 124.42 2124.48 122.98 2129.52 120.1C2134.68 117.1 2138.76 112.84 2141.76 107.32C2144.76 101.68 2146.26 95.14 2146.26 87.7Z" stroke="url(#paint18_linear_4_6)" stroke-width="8" mask="url(#path-1-outside-1_4_6)"/>
<defs>
<linearGradient id="paint0_linear_4_6" x1="25" y1="4" x2="1883.5" y2="4" gradientUnits="userSpaceOnUse">
<stop stop-color="#FC0909"/>
<stop offset="0.510417" stop-color="#CC00FF"/>
<stop offset="1" stop-color="#03E1FF"/>
</linearGradient>
<linearGradient id="paint1_linear_4_6" x1="25" y1="4" x2="1883.5" y2="4" gradientUnits="userSpaceOnUse">
<stop stop-color="#FC0909"/>
<stop offset="0.510417" stop-color="#CC00FF"/>
<stop offset="1" stop-color="#03E1FF"/>
</linearGradient>
<linearGradient id="paint2_linear_4_6" x1="25" y1="4" x2="1883.5" y2="4" gradientUnits="userSpaceOnUse">
<stop stop-color="#FC0909"/>
<stop offset="0.510417" stop-color="#CC00FF"/>
<stop offset="1" stop-color="#03E1FF"/>
</linearGradient>
<linearGradient id="paint3_linear_4_6" x1="25" y1="4" x2="1883.5" y2="4" gradientUnits="userSpaceOnUse">
<stop stop-color="#FC0909"/>
<stop offset="0.510417" stop-color="#CC00FF"/>
<stop offset="1" stop-color="#03E1FF"/>
</linearGradient>
<linearGradient id="paint4_linear_4_6" x1="25" y1="4" x2="1883.5" y2="4" gradientUnits="userSpaceOnUse">
<stop stop-color="#FC0909"/>
<stop offset="0.510417" stop-color="#CC00FF"/>
<stop offset="1" stop-color="#03E1FF"/>
</linearGradient>
<linearGradient id="paint5_linear_4_6" x1="25" y1="4" x2="1883.5" y2="4" gradientUnits="userSpaceOnUse">
<stop stop-color="#FC0909"/>
<stop offset="0.510417" stop-color="#CC00FF"/>
<stop offset="1" stop-color="#03E1FF"/>
</linearGradient>
<linearGradient id="paint6_linear_4_6" x1="25" y1="4" x2="1883.5" y2="4" gradientUnits="userSpaceOnUse">
<stop stop-color="#FC0909"/>
<stop offset="0.510417" stop-color="#CC00FF"/>
<stop offset="1" stop-color="#03E1FF"/>
</linearGradient>
<linearGradient id="paint7_linear_4_6" x1="25" y1="4" x2="1883.5" y2="4" gradientUnits="userSpaceOnUse">
<stop stop-color="#FC0909"/>
<stop offset="0.510417" stop-color="#CC00FF"/>
<stop offset="1" stop-color="#03E1FF"/>
</linearGradient>
<linearGradient id="paint8_linear_4_6" x1="25" y1="4" x2="1883.5" y2="4" gradientUnits="userSpaceOnUse">
<stop stop-color="#FC0909"/>
<stop offset="0.510417" stop-color="#CC00FF"/>
<stop offset="1" stop-color="#03E1FF"/>
</linearGradient>
<linearGradient id="paint9_linear_4_6" x1="25" y1="4" x2="1883.5" y2="4" gradientUnits="userSpaceOnUse">
<stop stop-color="#FC0909"/>
<stop offset="0.510417" stop-color="#CC00FF"/>
<stop offset="1" stop-color="#03E1FF"/>
</linearGradient>
<linearGradient id="paint10_linear_4_6" x1="25" y1="4" x2="1883.5" y2="4" gradientUnits="userSpaceOnUse">
<stop stop-color="#FC0909"/>
<stop offset="0.510417" stop-color="#CC00FF"/>
<stop offset="1" stop-color="#03E1FF"/>
</linearGradient>
<linearGradient id="paint11_linear_4_6" x1="25" y1="4" x2="1883.5" y2="4" gradientUnits="userSpaceOnUse">
<stop stop-color="#FC0909"/>
<stop offset="0.510417" stop-color="#CC00FF"/>
<stop offset="1" stop-color="#03E1FF"/>
</linearGradient>
<linearGradient id="paint12_linear_4_6" x1="25" y1="4" x2="1883.5" y2="4" gradientUnits="userSpaceOnUse">
<stop stop-color="#FC0909"/>
<stop offset="0.510417" stop-color="#CC00FF"/>
<stop offset="1" stop-color="#03E1FF"/>
</linearGradient>
<linearGradient id="paint13_linear_4_6" x1="25" y1="4" x2="1883.5" y2="4" gradientUnits="userSpaceOnUse">
<stop stop-color="#FC0909"/>
<stop offset="0.510417" stop-color="#CC00FF"/>
<stop offset="1" stop-color="#03E1FF"/>
</linearGradient>
<linearGradient id="paint14_linear_4_6" x1="25" y1="4" x2="1883.5" y2="4" gradientUnits="userSpaceOnUse">
<stop stop-color="#FC0909"/>
<stop offset="0.510417" stop-color="#CC00FF"/>
<stop offset="1" stop-color="#03E1FF"/>
</linearGradient>
<linearGradient id="paint15_linear_4_6" x1="25" y1="4" x2="1883.5" y2="4" gradientUnits="userSpaceOnUse">
<stop stop-color="#FC0909"/>
<stop offset="0.510417" stop-color="#CC00FF"/>
<stop offset="1" stop-color="#03E1FF"/>
</linearGradient>
<linearGradient id="paint16_linear_4_6" x1="25" y1="4" x2="1883.5" y2="4" gradientUnits="userSpaceOnUse">
<stop stop-color="#FC0909"/>
<stop offset="0.510417" stop-color="#CC00FF"/>
<stop offset="1" stop-color="#03E1FF"/>
</linearGradient>
<linearGradient id="paint17_linear_4_6" x1="25" y1="4" x2="1883.5" y2="4" gradientUnits="userSpaceOnUse">
<stop stop-color="#FC0909"/>
<stop offset="0.510417" stop-color="#CC00FF"/>
<stop offset="1" stop-color="#03E1FF"/>
</linearGradient>
<linearGradient id="paint18_linear_4_6" x1="25" y1="4" x2="1883.5" y2="4" gradientUnits="userSpaceOnUse">
<stop stop-color="#FC0909"/>
<stop offset="0.510417" stop-color="#CC00FF"/>
<stop offset="1" stop-color="#03E1FF"/>
</linearGradient>
</defs>
</svg>
